<svg 
  xmlns="http://www.w3.org/2000/svg" 
  width="49" 
  height="44" 
  viewBox="0 0 49 44" 
  fill="#6b6b6b" 
  class="injected-svg icon locations-arrow" 
  data-src="/assets/shared/icons/thin-arrow-right.svg" 
  xmlns:xlink="http://www.w3.org/1999/xlink">
	<path d="M0.599997 21.9994C0.599997 23.1917 1.496 24.1593 2.6 24.1593L42.499 24.1593L27.221 39.8754C26.422 40.6972 26.389 42.0634 27.152 42.9296C27.914 43.7936 29.179 43.8271 29.979 43.0041L47.428 25.0547C48.184 24.2382 48.6 23.1539 48.6 21.9994C48.6 20.8459 48.184 19.7605 47.393 18.9084L29.979 0.995696C29.179 0.172744 27.914 0.207305 27.152 1.07022C26.389 1.93313 26.421 3.3004 27.221 4.12335L42.563 19.8394L2.6 19.8394C1.496 19.8394 0.599997 20.8071 0.599997 21.9994Z">
	</path>
</svg>
