<svg 
  xmlns="http://www.w3.org/2000/svg"
  width="23"
  height="22"
  viewBox="0 0 23 22"
  fill="none"
  class="injected-svg icon icon-text__icon transferInfo__icon__icon"
  data-src="/assets/shared/icons/additional-trip-times-departure.svg"
  xmlns:xlink="http://www.w3.org/1999/xlink">
	<path d="M4.24419 8.12836C4.24419 7.24827 4.95535 6.53227 5.82948 6.53227H6.35791V4.97165C6.35791 4.07202 7.08488 3.34009 7.97842 3.34009H18.547C19.4406 3.34009 20.1675 4.07202 20.1675 4.97165V6.53227H20.696C21.5701 6.53227 22.2812 7.24827 22.2812 8.12836V10.7984H20.1675V19.0073H19.463V19.9039C19.463 20.784 18.7518 21.5 17.8777 21.5H17.1632C16.2891 21.5 15.5779 20.784 15.5779 19.9039V19.0073H10.9475V19.9039C10.9475 20.784 10.2363 21.5 9.36217 21.5H8.64777C7.77364 21.5 7.06248 20.784 7.06248 19.9039V19.0073H6.35791V10.7984H4.24419V8.12836ZM18.547 4.40415H7.97842C7.66764 4.40415 7.41476 4.65874 7.41476 4.97165V5.46821H19.1107V4.97165C19.1107 4.65874 18.8578 4.40415 18.547 4.40415ZM21.2244 9.73438V8.12836C21.2244 7.83499 20.9873 7.59633 20.696 7.59633H20.1675V9.73438H21.2244ZM7.41476 16.8792V17.9432H10.7763V15.8151H15.7492V17.9432H19.1107V16.8792H16.9822V15.8151H19.1107V13.7755C17.1688 14.064 15.2158 14.2088 13.2627 14.2088C11.3096 14.2088 9.35667 14.064 7.41476 13.7755V15.8151H9.54328V16.8792H7.41476ZM11.8331 17.9432H14.6923V16.8792H11.8331V17.9432ZM16.6348 19.9039C16.6348 20.1973 16.8719 20.436 17.1632 20.436H17.8777C18.169 20.436 18.4061 20.1973 18.4061 19.9039V19.0073H16.6348V19.9039ZM8.11934 19.9039C8.11934 20.1973 8.35639 20.436 8.64777 20.436H9.36217C9.65354 20.436 9.8906 20.1973 9.8906 19.9039V19.0073H8.11934V19.9039ZM7.41476 12.6999C11.2977 13.2927 15.2277 13.2927 19.1107 12.6999V10.7984V6.53227H7.41476V10.7984V12.6999ZM5.30105 9.73438H6.35791V7.59633H5.82948C5.5381 7.59633 5.30105 7.83499 5.30105 8.12836V9.73438Z"
    fill="#414141">
	</path>
	<circle cx="7.42703"
    cy="7.42703"
    r="6.92703"
    transform="matrix(-1 0 0 1 14.8535 0.5)"
    fill="white"
    stroke="#414141">
	</circle>
	<path d="M5.46335 8.4799H10.6088C10.9023 8.4799 11.1399 8.23933 11.1399 7.94268C11.1399 7.64603 10.9023 7.40547 10.6088 7.40547H5.47456L7.1009 5.64851C7.30161 5.43185 7.29072 5.0919 7.07652 4.8891C6.86231 4.68609 6.52568 4.69737 6.32597 4.91403L3.88317 7.55266C3.82512 7.60757 3.78029 7.67429 3.75119 7.75068C3.73748 7.78555 3.73573 7.82251 3.72957 7.85904C3.725 7.8874 3.71289 7.91303 3.71289 7.94263C3.71289 7.94376 3.71353 7.94472 3.71353 7.94585C3.71284 8.07876 3.76016 8.21177 3.85656 8.31588L6.32602 10.9833C6.43029 11.0961 6.57189 11.1533 6.71349 11.1533C6.84367 11.1533 6.97385 11.1053 7.07657 11.0082C7.29078 10.8055 7.30167 10.4655 7.10095 10.2488L5.46335 8.4799Z"
    fill="#414141">
	</path>
</svg>
